<svg preserveAspectRatio="none" width="100%" height="100%" overflow="visible" style="display: block;" viewBox="0 0 462 165" fill="none" xmlns="http://www.w3.org/2000/svg">
<path id="Line 1" d="M233.511 148.215L233.614 149.21L234.027 149.168L234.289 148.845L233.511 148.215ZM461.015 90.4397L460.209 82.3147L452.084 83.121L452.89 91.2461L461.015 90.4397ZM352.369 1.41105L353.003 0.637565L352.225 -4.00447e-08L351.592 0.781797L352.369 1.41105ZM84.1299 163.577L83.4961 164.351L83.8181 164.615L84.2322 164.572L84.1299 163.577ZM233.511 148.215L234.289 148.845L353.146 2.0403L352.369 1.41105L351.592 0.781797L232.734 147.586L233.511 148.215ZM352.369 1.41105L351.735 2.18453L455.916 87.5539L456.55 86.7804L457.183 86.0069L353.003 0.637565L352.369 1.41105ZM233.511 148.215L233.409 147.221L84.0276 162.583L84.1299 163.577L84.2322 164.572L233.614 149.21L233.511 148.215ZM84.1299 163.577L84.7637 162.804L1.26764 94.3844L0.633818 95.1578L2.61017e-08 95.9313L83.4961 164.351L84.1299 163.577Z" fill="var(--stroke-0, white)"/>
</svg>
